<?xml version="1.0" encoding="UTF-8"?>
<svg width="328px" height="102px" viewBox="0 0 328 102" version="1.1" xmlns="http://www.w3.org/2000/svg" xmlns:xlink="http://www.w3.org/1999/xlink">
    <!-- Generator: Sketch 51.2 (57519) - http://www.bohemiancoding.com/sketch -->
    <title>攻略1</title>
    <desc>Created with Sketch.</desc>
    <defs>
        <filter x="-3.0%" y="-12.2%" width="106.0%" height="129.7%" filterUnits="objectBoundingBox" id="filter-1">
            <feOffset dx="0" dy="0" in="SourceAlpha" result="shadowOffsetOuter1"></feOffset>
            <feGaussianBlur stdDeviation="3" in="shadowOffsetOuter1" result="shadowBlurOuter1"></feGaussianBlur>
            <feColorMatrix values="0 0 0 0 0   0 0 0 0 0   0 0 0 0 0  0 0 0 0.1 0" type="matrix" in="shadowBlurOuter1" result="shadowMatrixOuter1"></feColorMatrix>
            <feMerge>
                <feMergeNode in="shadowMatrixOuter1"></feMergeNode>
                <feMergeNode in="SourceGraphic"></feMergeNode>
            </feMerge>
        </filter>
        <filter x="-23.7%" y="-40.9%" width="147.4%" height="181.8%" filterUnits="objectBoundingBox" id="filter-2">
            <feGaussianBlur stdDeviation="5" in="SourceGraphic"></feGaussianBlur>
        </filter>
        <rect id="path-3" x="0" y="0" width="80" height="53.3333333" rx="6.66666667"></rect>
    </defs>
    <g id="5.4.8000" stroke="none" stroke-width="1" fill="none" fill-rule="evenodd">
        <g id="切图" transform="translate(-63.000000, -628.000000)">
            <g id="攻略1" transform="translate(63.000000, 628.000000)">
                <rect id="Rectangle-18" fill="#F7F7F7" fill-rule="nonzero" x="0" y="0" width="328" height="102"></rect>
                <g id="Group-17" filter="url(#filter-1)" transform="translate(14.000000, 14.000000)">
                    <rect id="Rectangle-19" fill="#FFFFFF" fill-rule="nonzero" x="0" y="0" width="300" height="73.3333333"></rect>
                    <text id="解锁进度" font-family="PingFangSC-Regular, PingFang SC" font-size="10" font-weight="normal" fill="#666666">
                        <tspan x="106.666667" y="30.1666667">解锁进度</tspan>
                    </text>
                    <text id="已完成解锁，立即提现" font-family="PingFangSC-Medium, PingFang SC" font-size="11.6666667" font-weight="400" fill="#FE6969">
                        <tspan x="106.666667" y="49.5">已完成解锁，立即提现</tspan>
                    </text>
                    <rect id="Rectangle-5" fill="#07A9F5" fill-rule="nonzero" x="153.333333" y="22.5" width="133.333333" height="8.33333333" rx="4.16666667"></rect>
                    <g id="Group-18" transform="translate(13.333333, 10.000000)">
                        <rect id="Rectangle-3-Copy" fill="#00E000" fill-rule="nonzero" filter="url(#filter-2)" x="8.33333333" y="15.8333333" width="63.3333333" height="36.6666667" rx="3.33333333"></rect>
                        <g id="微信-copy">
                            <mask id="mask-4" fill="white">
                                <use xlink:href="#path-3"></use>
                            </mask>
                            <use id="Mask" fill="#37C637" fill-rule="nonzero" xlink:href="#path-3"></use>
                            <g id="微信-(1)" opacity="0.300000012" mask="url(#mask-4)" fill="#FFFFFF" fill-rule="nonzero">
                                <g transform="translate(50.000000, 28.333333)" id="Shape">
                                    <path d="M19.834117,7.62579976 C20.1704545,7.62579976 20.5035266,7.65000865 20.8333333,7.6915096 C19.9353448,3.27511672 15.4682602,0 10.3709509,0 C4.66954023,0 0,4.10513574 0,9.3135051 C0,12.3223241 1.55433647,14.7916306 4.1503396,16.7075912 L3.11193835,20 L6.7365465,18.080581 C8.03618077,18.3537956 9.07784744,18.6304686 10.3709509,18.6304686 C10.6974922,18.6304686 11.0175026,18.6131766 11.3375131,18.5889677 C11.1350575,17.8557842 11.0175026,17.0880166 11.0175026,16.2925817 C11.0175026,11.5095971 14.9098746,7.62579976 19.834117,7.62579976 Z M14.2600575,4.65848176 C15.0404911,4.65848176 15.5564263,5.20145253 15.5564263,6.02455473 C15.5564263,6.84419851 15.0404911,7.39408611 14.2600575,7.39408611 C13.4828892,7.39408611 12.7024556,6.84419851 12.7024556,6.02455473 C12.7024556,5.20145253 13.4796238,4.65848176 14.2600575,4.65848176 Z M7.00104493,7.39408611 C6.2238767,7.39408611 5.43691223,6.84419851 5.43691223,6.02455473 C5.43691223,5.20145253 6.22061129,4.65848176 7.00104493,4.65848176 C7.77821317,4.65848176 8.29414838,5.20145253 8.29414838,6.02455473 C8.29741379,6.8407401 7.78147858,7.39408611 7.00104493,7.39408611 Z"></path>
                                    <path d="M30,15.6854264 C30,11.1759617 25.6866741,7.5 20.840126,7.5 C15.708287,7.5 11.6666667,11.1759617 11.6666667,15.6854264 C11.6666667,20.2020151 15.708287,23.8708528 20.840126,23.8708528 C21.913363,23.8708528 23.0001853,23.5894565 24.0734223,23.3044983 L27.0316166,25 L26.2232926,22.1824751 C28.3867482,20.4834114 30,18.228679 30,15.6854264 Z M17.86495,14.274883 C17.3283315,14.274883 16.7849203,13.7156524 16.7849203,13.1457358 C16.7849203,12.5829432 17.3283315,12.0165886 17.86495,12.0165886 C18.6800667,12.0165886 19.2132889,12.5829432 19.2132889,13.1457358 C19.2132889,13.7156524 18.6800667,14.274883 17.86495,14.274883 Z M23.7983204,14.274883 C23.2650982,14.274883 22.7284797,13.7156524 22.7284797,13.1457358 C22.7284797,12.5829432 23.2650982,12.0165886 23.7983204,12.0165886 C24.6066444,12.0165886 25.1466593,12.5829432 25.1466593,13.1457358 C25.1466593,13.7156524 24.6066444,14.274883 23.7983204,14.274883 Z"></path>
                                </g>
                            </g>
                        </g>
                        <text id="微信提现" font-family="PingFangSC-Medium, PingFang SC" font-size="11.6666667" font-weight="400" fill="#FFFFFF">
                            <tspan x="6.66666667" y="18.6666667">微信提现</tspan>
                        </text>
                        <text id="1-元" font-family="DIN-Medium, DIN" font-size="16.6666667" font-weight="400" fill="#FFFFFF">
                            <tspan x="6.66666667" y="40.3333333">1 </tspan>
                            <tspan x="19.55" y="40.3333333" font-family="PingFangSC-Medium, PingFang SC">元</tspan>
                        </text>
                    </g>
                </g>
            </g>
        </g>
    </g>
</svg>