<?xml version="1.0" encoding="UTF-8"?>
<svg width="328px" height="173px" viewBox="0 0 328 173" version="1.1" xmlns="http://www.w3.org/2000/svg" xmlns:xlink="http://www.w3.org/1999/xlink">
    <!-- Generator: Sketch 51.2 (57519) - http://www.bohemiancoding.com/sketch -->
    <title>攻略3</title>
    <desc>Created with Sketch.</desc>
    <defs>
        <filter x="-3.0%" y="-6.2%" width="106.0%" height="113.8%" filterUnits="objectBoundingBox" id="filter-1">
            <feOffset dx="0" dy="0" in="SourceAlpha" result="shadowOffsetOuter1"></feOffset>
            <feGaussianBlur stdDeviation="3" in="shadowOffsetOuter1" result="shadowBlurOuter1"></feGaussianBlur>
            <feColorMatrix values="0 0 0 0 0   0 0 0 0 0   0 0 0 0 0  0 0 0 0.1 0" type="matrix" in="shadowBlurOuter1" result="shadowMatrixOuter1"></feColorMatrix>
            <feMerge>
                <feMergeNode in="shadowMatrixOuter1"></feMergeNode>
                <feMergeNode in="SourceGraphic"></feMergeNode>
            </feMerge>
        </filter>
        <filter x="-23.7%" y="-40.9%" width="147.4%" height="181.8%" filterUnits="objectBoundingBox" id="filter-2">
            <feGaussianBlur stdDeviation="5" in="SourceGraphic"></feGaussianBlur>
        </filter>
        <rect id="path-3" x="0" y="0" width="80" height="53.3333333" rx="6.66666667"></rect>
        <filter x="-23.7%" y="-40.9%" width="147.4%" height="181.8%" filterUnits="objectBoundingBox" id="filter-5">
            <feGaussianBlur stdDeviation="5" in="SourceGraphic"></feGaussianBlur>
        </filter>
        <rect id="path-6" x="0" y="0" width="80" height="53.3333333" rx="6.66666667"></rect>
        <filter x="-23.7%" y="-40.9%" width="147.4%" height="181.8%" filterUnits="objectBoundingBox" id="filter-8">
            <feGaussianBlur stdDeviation="5" in="SourceGraphic"></feGaussianBlur>
        </filter>
        <rect id="path-9" x="0" y="0" width="80" height="53.3333333" rx="6.66666667"></rect>
        <filter x="-23.7%" y="-40.9%" width="147.4%" height="181.8%" filterUnits="objectBoundingBox" id="filter-11">
            <feGaussianBlur stdDeviation="5" in="SourceGraphic"></feGaussianBlur>
        </filter>
        <rect id="path-12" x="0" y="0" width="80" height="53.3333333" rx="6.66666667"></rect>
        <filter x="-23.7%" y="-40.9%" width="147.4%" height="181.8%" filterUnits="objectBoundingBox" id="filter-14">
            <feGaussianBlur stdDeviation="5" in="SourceGraphic"></feGaussianBlur>
        </filter>
        <rect id="path-15" x="0" y="0" width="80" height="53.3333333" rx="6.66666667"></rect>
        <filter x="-23.7%" y="-40.9%" width="147.4%" height="181.8%" filterUnits="objectBoundingBox" id="filter-17">
            <feGaussianBlur stdDeviation="5" in="SourceGraphic"></feGaussianBlur>
        </filter>
        <rect id="path-18" x="0" y="0" width="80" height="53.3333333" rx="6.66666667"></rect>
    </defs>
    <g id="5.4.8000" stroke="none" stroke-width="1" fill="none" fill-rule="evenodd">
        <g id="切图" transform="translate(-63.000000, -864.000000)">
            <g id="攻略3" transform="translate(63.000000, 864.000000)">
                <rect id="Rectangle-18-Copy-2" fill="#F7F7F7" fill-rule="nonzero" x="0" y="0" width="328" height="173"></rect>
                <g id="Group-24" filter="url(#filter-1)" transform="translate(14.000000, 14.000000)">
                    <rect id="Rectangle-19" fill="#FFFFFF" fill-rule="nonzero" x="0" y="0" width="300" height="145"></rect>
                    <g id="Group-18" transform="translate(13.333333, 8.333333)">
                        <rect id="Rectangle-3-Copy" fill="#00E000" fill-rule="nonzero" filter="url(#filter-2)" x="8.33333333" y="15.8333333" width="63.3333333" height="36.6666667" rx="3.33333333"></rect>
                        <g id="微信-copy">
                            <mask id="mask-4" fill="white">
                                <use xlink:href="#path-3"></use>
                            </mask>
                            <use id="Mask" fill="#37C637" fill-rule="nonzero" xlink:href="#path-3"></use>
                            <g id="微信-(1)" opacity="0.300000012" mask="url(#mask-4)" fill="#FFFFFF" fill-rule="nonzero">
                                <g transform="translate(50.000000, 28.333333)" id="Shape">
                                    <path d="M19.834117,7.62579976 C20.1704545,7.62579976 20.5035266,7.65000865 20.8333333,7.6915096 C19.9353448,3.27511672 15.4682602,0 10.3709509,0 C4.66954023,0 0,4.10513574 0,9.3135051 C0,12.3223241 1.55433647,14.7916306 4.1503396,16.7075912 L3.11193835,20 L6.7365465,18.080581 C8.03618077,18.3537956 9.07784744,18.6304686 10.3709509,18.6304686 C10.6974922,18.6304686 11.0175026,18.6131766 11.3375131,18.5889677 C11.1350575,17.8557842 11.0175026,17.0880166 11.0175026,16.2925817 C11.0175026,11.5095971 14.9098746,7.62579976 19.834117,7.62579976 Z M14.2600575,4.65848176 C15.0404911,4.65848176 15.5564263,5.20145253 15.5564263,6.02455473 C15.5564263,6.84419851 15.0404911,7.39408611 14.2600575,7.39408611 C13.4828892,7.39408611 12.7024556,6.84419851 12.7024556,6.02455473 C12.7024556,5.20145253 13.4796238,4.65848176 14.2600575,4.65848176 Z M7.00104493,7.39408611 C6.2238767,7.39408611 5.43691223,6.84419851 5.43691223,6.02455473 C5.43691223,5.20145253 6.22061129,4.65848176 7.00104493,4.65848176 C7.77821317,4.65848176 8.29414838,5.20145253 8.29414838,6.02455473 C8.29741379,6.8407401 7.78147858,7.39408611 7.00104493,7.39408611 Z"></path>
                                    <path d="M30,15.6854264 C30,11.1759617 25.6866741,7.5 20.840126,7.5 C15.708287,7.5 11.6666667,11.1759617 11.6666667,15.6854264 C11.6666667,20.2020151 15.708287,23.8708528 20.840126,23.8708528 C21.913363,23.8708528 23.0001853,23.5894565 24.0734223,23.3044983 L27.0316166,25 L26.2232926,22.1824751 C28.3867482,20.4834114 30,18.228679 30,15.6854264 Z M17.86495,14.274883 C17.3283315,14.274883 16.7849203,13.7156524 16.7849203,13.1457358 C16.7849203,12.5829432 17.3283315,12.0165886 17.86495,12.0165886 C18.6800667,12.0165886 19.2132889,12.5829432 19.2132889,13.1457358 C19.2132889,13.7156524 18.6800667,14.274883 17.86495,14.274883 Z M23.7983204,14.274883 C23.2650982,14.274883 22.7284797,13.7156524 22.7284797,13.1457358 C22.7284797,12.5829432 23.2650982,12.0165886 23.7983204,12.0165886 C24.6066444,12.0165886 25.1466593,12.5829432 25.1466593,13.1457358 C25.1466593,13.7156524 24.6066444,14.274883 23.7983204,14.274883 Z"></path>
                                </g>
                            </g>
                        </g>
                        <text id="微信提现" font-family="PingFangSC-Medium, PingFang SC" font-size="11.6666667" font-weight="400" fill="#FFFFFF">
                            <tspan x="6.66666667" y="18.6666667">微信提现</tspan>
                        </text>
                        <text id="50元" font-family="DIN-Medium, DIN" font-size="16.6666667" font-weight="400" fill="#FFFFFF">
                            <tspan x="6.66666667" y="40.3333333">50</tspan>
                            <tspan x="24.4333333" y="40.3333333" font-family="PingFangSC-Medium, PingFang SC">元</tspan>
                        </text>
                    </g>
                    <g id="Group-23" transform="translate(13.333333, 78.333333)">
                        <rect id="Rectangle-3-Copy-4" fill="#37C637" fill-rule="nonzero" filter="url(#filter-5)" x="8.33333333" y="15.8333333" width="63.3333333" height="36.6666667" rx="3.33333333"></rect>
                        <g id="微信-copy">
                            <mask id="mask-7" fill="white">
                                <use xlink:href="#path-6"></use>
                            </mask>
                            <use id="Mask" fill="#37C637" fill-rule="nonzero" xlink:href="#path-6"></use>
                            <g id="微信-(1)" opacity="0.300000012" mask="url(#mask-7)" fill="#FFFFFF" fill-rule="nonzero">
                                <g transform="translate(50.000000, 28.333333)" id="Shape">
                                    <path d="M19.834117,7.62579976 C20.1704545,7.62579976 20.5035266,7.65000865 20.8333333,7.6915096 C19.9353448,3.27511672 15.4682602,0 10.3709509,0 C4.66954023,0 0,4.10513574 0,9.3135051 C0,12.3223241 1.55433647,14.7916306 4.1503396,16.7075912 L3.11193835,20 L6.7365465,18.080581 C8.03618077,18.3537956 9.07784744,18.6304686 10.3709509,18.6304686 C10.6974922,18.6304686 11.0175026,18.6131766 11.3375131,18.5889677 C11.1350575,17.8557842 11.0175026,17.0880166 11.0175026,16.2925817 C11.0175026,11.5095971 14.9098746,7.62579976 19.834117,7.62579976 Z M14.2600575,4.65848176 C15.0404911,4.65848176 15.5564263,5.20145253 15.5564263,6.02455473 C15.5564263,6.84419851 15.0404911,7.39408611 14.2600575,7.39408611 C13.4828892,7.39408611 12.7024556,6.84419851 12.7024556,6.02455473 C12.7024556,5.20145253 13.4796238,4.65848176 14.2600575,4.65848176 Z M7.00104493,7.39408611 C6.2238767,7.39408611 5.43691223,6.84419851 5.43691223,6.02455473 C5.43691223,5.20145253 6.22061129,4.65848176 7.00104493,4.65848176 C7.77821317,4.65848176 8.29414838,5.20145253 8.29414838,6.02455473 C8.29741379,6.8407401 7.78147858,7.39408611 7.00104493,7.39408611 Z"></path>
                                    <path d="M30,15.6854264 C30,11.1759617 25.6866741,7.5 20.840126,7.5 C15.708287,7.5 11.6666667,11.1759617 11.6666667,15.6854264 C11.6666667,20.2020151 15.708287,23.8708528 20.840126,23.8708528 C21.913363,23.8708528 23.0001853,23.5894565 24.0734223,23.3044983 L27.0316166,25 L26.2232926,22.1824751 C28.3867482,20.4834114 30,18.228679 30,15.6854264 Z M17.86495,14.274883 C17.3283315,14.274883 16.7849203,13.7156524 16.7849203,13.1457358 C16.7849203,12.5829432 17.3283315,12.0165886 17.86495,12.0165886 C18.6800667,12.0165886 19.2132889,12.5829432 19.2132889,13.1457358 C19.2132889,13.7156524 18.6800667,14.274883 17.86495,14.274883 Z M23.7983204,14.274883 C23.2650982,14.274883 22.7284797,13.7156524 22.7284797,13.1457358 C22.7284797,12.5829432 23.2650982,12.0165886 23.7983204,12.0165886 C24.6066444,12.0165886 25.1466593,12.5829432 25.1466593,13.1457358 C25.1466593,13.7156524 24.6066444,14.274883 23.7983204,14.274883 Z"></path>
                                </g>
                            </g>
                        </g>
                        <text id="微信提现-copy" font-family="PingFangSC-Medium, PingFang SC" font-size="11.6666667" font-weight="400" fill="#FFFFFF">
                            <tspan x="6.66666667" y="18.6666667">微信提现</tspan>
                        </text>
                        <text id="100元" font-family="DIN-Medium, DIN" font-size="16.6666667" font-weight="400" fill="#FFFFFF">
                            <tspan x="6.66666667" y="40.3333333">100</tspan>
                            <tspan x="33.3166667" y="40.3333333" font-family="PingFangSC-Medium, PingFang SC">元</tspan>
                        </text>
                    </g>
                    <g id="Group-19" transform="translate(110.000000, 8.333333)">
                        <rect id="Rectangle-3-Copy-2" fill="#07A9F5" fill-rule="nonzero" filter="url(#filter-8)" x="8.33333333" y="15.8333333" width="63.3333333" height="36.6666667" rx="3.33333333"></rect>
                        <g id="支付宝">
                            <mask id="mask-10" fill="white">
                                <use xlink:href="#path-9"></use>
                            </mask>
                            <use id="Mask" fill="#07A9F5" fill-rule="nonzero" xlink:href="#path-9"></use>
                            <g opacity="0.300000012" mask="url(#mask-10)" fill="#FFFFFF" fill-rule="nonzero" id="Shape">
                                <g transform="translate(48.333333, 28.333333)">
                                    <path d="M3.68507078,23.7046632 C10.7356338,25.2590674 15.3054431,22.2797927 18.4390267,18.6528497 C18.7001586,18.9119171 18.8307246,18.9119171 19.0918566,18.9119171 C21.3114783,20.0777202 31.7567568,25 31.7567568,25 L31.7567568,19.1709845 C30.189965,19.1709845 24.4450618,17.2279793 20.2669504,15.8031088 C22.4865721,11.9170984 23.269968,8.16062176 23.269968,8.16062176 L15.958273,8.16062176 L15.958273,5.44041451 L24.5756278,5.44041451 L24.5756278,4.14507772 L15.958273,4.14507772 L15.958273,0 L12.0412936,0 L12.0412936,4.14507772 L4.07676872,4.14507772 L4.07676872,5.31088083 L11.9107276,5.31088083 L11.9107276,8.03108808 L5.25186255,8.03108808 L5.25186255,9.19689119 L18.8307246,9.19689119 C18.8307246,9.45595855 18.8307246,9.45595855 18.5695926,9.58549223 C18.5695926,11.0103627 17.5250648,12.9533679 16.7416689,14.507772 C6.68808835,10.6217617 3.68507078,12.9533679 2.90167489,13.3419689 C-3.62662418,18.0051813 2.77110891,23.9637306 3.68507078,23.7046632 Z M3.16280685,15.1554404 C8.12431414,13.6010363 12.4329915,15.4145078 15.5665751,16.9689119 C15.3054431,17.357513 15.1748771,17.6165803 15.1748771,17.6165803 C10.2133698,23.8341969 4.33790068,21.8911917 3.29337283,21.5025907 C0.94318517,20.7253886 0.159789282,16.4507772 3.16280685,15.1554404 Z"></path>
                                </g>
                            </g>
                        </g>
                        <text id="支付宝提现" font-family="PingFangSC-Medium, PingFang SC" font-size="11.6666667" font-weight="400" fill="#FFFFFF">
                            <tspan x="6.66666667" y="18.6666667">支付宝提现</tspan>
                        </text>
                        <text id="50元" font-family="DIN-Medium, DIN" font-size="16.6666667" font-weight="400" fill="#FFFFFF">
                            <tspan x="6.66666667" y="40.3333333">50</tspan>
                            <tspan x="24.4333333" y="40.3333333" font-family="PingFangSC-Medium, PingFang SC">元</tspan>
                        </text>
                    </g>
                    <g id="Group-22" transform="translate(110.000000, 78.333333)">
                        <rect id="Rectangle-3-Copy-2" fill="#07A9F5" fill-rule="nonzero" filter="url(#filter-11)" x="8.33333333" y="15.8333333" width="63.3333333" height="36.6666667" rx="3.33333333"></rect>
                        <g id="支付宝">
                            <mask id="mask-13" fill="white">
                                <use xlink:href="#path-12"></use>
                            </mask>
                            <use id="Mask" fill="#07A9F5" fill-rule="nonzero" xlink:href="#path-12"></use>
                            <g opacity="0.300000012" mask="url(#mask-13)" fill="#FFFFFF" fill-rule="nonzero" id="Shape">
                                <g transform="translate(48.333333, 28.333333)">
                                    <path d="M3.68507078,23.7046632 C10.7356338,25.2590674 15.3054431,22.2797927 18.4390267,18.6528497 C18.7001586,18.9119171 18.8307246,18.9119171 19.0918566,18.9119171 C21.3114783,20.0777202 31.7567568,25 31.7567568,25 L31.7567568,19.1709845 C30.189965,19.1709845 24.4450618,17.2279793 20.2669504,15.8031088 C22.4865721,11.9170984 23.269968,8.16062176 23.269968,8.16062176 L15.958273,8.16062176 L15.958273,5.44041451 L24.5756278,5.44041451 L24.5756278,4.14507772 L15.958273,4.14507772 L15.958273,0 L12.0412936,0 L12.0412936,4.14507772 L4.07676872,4.14507772 L4.07676872,5.31088083 L11.9107276,5.31088083 L11.9107276,8.03108808 L5.25186255,8.03108808 L5.25186255,9.19689119 L18.8307246,9.19689119 C18.8307246,9.45595855 18.8307246,9.45595855 18.5695926,9.58549223 C18.5695926,11.0103627 17.5250648,12.9533679 16.7416689,14.507772 C6.68808835,10.6217617 3.68507078,12.9533679 2.90167489,13.3419689 C-3.62662418,18.0051813 2.77110891,23.9637306 3.68507078,23.7046632 Z M3.16280685,15.1554404 C8.12431414,13.6010363 12.4329915,15.4145078 15.5665751,16.9689119 C15.3054431,17.357513 15.1748771,17.6165803 15.1748771,17.6165803 C10.2133698,23.8341969 4.33790068,21.8911917 3.29337283,21.5025907 C0.94318517,20.7253886 0.159789282,16.4507772 3.16280685,15.1554404 Z"></path>
                                </g>
                            </g>
                        </g>
                        <text id="支付宝提现-copy" font-family="PingFangSC-Medium, PingFang SC" font-size="11.6666667" font-weight="400" fill="#FFFFFF">
                            <tspan x="6.66666667" y="18.6666667">支付宝提现</tspan>
                        </text>
                        <text id="100元" font-family="DIN-Medium, DIN" font-size="16.6666667" font-weight="400" fill="#FFFFFF">
                            <tspan x="6.66666667" y="40.3333333">100</tspan>
                            <tspan x="33.3166667" y="40.3333333" font-family="PingFangSC-Medium, PingFang SC">元</tspan>
                        </text>
                    </g>
                    <g id="Group-20" transform="translate(206.666667, 8.333333)">
                        <rect id="Rectangle-3-Copy-2" fill="#FF7507" fill-rule="nonzero" filter="url(#filter-14)" x="8.33333333" y="15.8333333" width="63.3333333" height="36.6666667" rx="3.33333333"></rect>
                        <g id="Q币">
                            <mask id="mask-16" fill="white">
                                <use xlink:href="#path-15"></use>
                            </mask>
                            <use id="Mask" fill="#FF7507" fill-rule="nonzero" xlink:href="#path-15"></use>
                            <g opacity="0.300000012" mask="url(#mask-16)" fill="#FFFFFF" fill-rule="nonzero" id="Shape">
                                <g transform="translate(58.333333, 29.166667)">
                                    <path d="M21.6666667,16.1193893 C21.5393486,15.3961763 21.332799,14.7362801 21.0469695,14.1403532 C20.76114,13.5449821 20.4695905,13.0341945 20.1733632,12.6083046 C19.8764089,12.182608 19.5063308,11.7359588 19.0612627,11.2675596 C19.12474,10.5869043 19.1193351,10.0442649 19.0454843,9.63966585 C18.9709064,9.23596095 18.8812529,8.91645287 18.7754332,8.68205994 C18.6484787,8.46965873 18.4680811,8.27835504 18.2353553,8.10759307 C18.1926736,6.04382848 17.7852702,4.45829894 17.0124423,3.35177775 C16.2388873,2.24561907 15.4079627,1.44746512 14.5185538,0.957605908 C13.6076464,0.447156643 12.7759948,0.159645287 12.024326,0.0958451823 C11.2722936,0.0319967201 10.8752637,0 10.8329698,0 C10.7906516,0 10.3932824,0.0319967201 9.64197714,0.0958451823 C8.88994474,0.159669454 8.05829311,0.447156643 7.14808866,0.957605908 C6.25870397,1.44748931 5.42705231,2.24561907 4.65422441,3.35177775 C3.88066939,4.45829894 3.47326599,6.04382848 3.43094781,8.10759307 C3.19783424,8.25689502 3.01816377,8.44839202 2.89086988,8.68205994 C2.78471088,8.91645287 2.69469384,9.23596095 2.6208188,9.63966585 C2.54621665,10.0442649 2.54119954,10.5869042 2.60504038,11.2675596 C2.16033591,11.735983 1.78953073,12.1827771 1.49330345,12.6083046 C1.1963733,13.0127103 0.905526692,13.5181329 0.619333627,14.1244273 C0.333504123,14.7310601 0.126954559,15.3961521 0,16.1193651 C0,17.076971 0.0738750334,17.7265481 0.222327987,18.0665737 C0.349282522,18.4284702 0.576651878,18.5723829 0.905526669,18.4974661 C1.2333108,18.423081 1.7364512,17.8327366 2.41426922,16.7258287 C2.56238284,17.1089678 2.71086004,17.4495492 2.85931301,17.7472589 C3.00706308,18.0456694 3.1874607,18.3856951 3.39939094,18.7688582 C3.61098184,19.1516589 3.85449316,19.5244063 4.12992491,19.8859644 C3.70604021,20.0565089 3.37789252,20.2479818 3.14514254,20.4605763 C2.91166541,20.6520733 2.70545518,20.9023679 2.52578468,21.2105902 C2.34541131,21.5193682 2.27652913,21.8862189 2.31923511,22.3119155 C2.38271239,22.7163696 2.55198511,23.0460277 2.8273926,23.3013731 C3.08166526,23.5359111 3.49478862,23.7431164 4.06644763,23.9237143 C4.6380824,24.1048196 5.45325275,24.1845939 6.51261304,24.163303 C7.16924775,24.0783812 7.70898632,23.9827052 8.13289527,23.8758159 C8.57759974,23.769434 9.0168993,23.6155162 9.451206,23.4129267 C9.88514913,23.2109172 10.2082555,22.9502309 10.4202099,22.6310853 L11.2464567,22.6310853 C11.4577083,22.9502067 11.7808146,23.210893 12.2154606,23.4129267 C12.6490402,23.6155162 13.0890669,23.769434 13.5337714,23.8758159 C13.9573168,23.9827294 14.4970311,24.0784054 15.1536658,24.163303 C16.2126868,24.1845939 17.0282207,24.1048196 17.6001948,23.9237143 C18.1718538,23.7431164 18.5849771,23.5359111 18.8392498,23.3013731 C19.114318,23.0460277 19.2839543,22.7163696 19.3474315,22.3119155 C19.3897255,21.8862189 19.3205282,21.5193682 19.1408577,21.2105902 C18.9608237,20.9023679 18.7542741,20.6520733 18.5215241,20.4605763 C18.288047,20.2479818 17.9602628,20.0564847 17.5367175,19.8859644 C17.8114464,19.5244063 18.055297,19.1516589 18.2672515,18.7688582 C18.4788424,18.385695 18.6588764,18.0456453 18.8073294,17.7472589 C18.955443,17.4495733 19.1039202,17.1089677 19.2523732,16.7258287 C19.9298277,17.8327366 20.4326045,18.4230568 20.7614793,18.4974661 C21.0892634,18.5723829 21.3169963,18.4286393 21.4443144,18.0665737 C21.5920645,17.7263789 21.6666667,17.0769952 21.6666667,16.1193893 Z M15.5807983,16.6711636 C15.4660593,16.7964922 15.326865,16.8590598 15.1626578,16.8590598 C15.0302984,16.8590598 14.8696299,16.8157772 14.6806523,16.7299612 C14.4912869,16.6435894 14.2692982,16.5180675 14.0143227,16.3539514 C13.7586201,16.1896419 13.4792619,15.9974441 13.1751575,15.7780587 C12.6099456,16.0678659 11.9160099,16.2128661 11.093326,16.2128661 C10.4269964,16.2128661 9.82952474,16.1061459 9.30163814,15.8924639 C8.77338798,15.6793618 8.33013776,15.3718404 7.97149965,14.9704555 C7.61288577,14.5689256 7.34319825,14.0924306 7.16137064,13.5401246 C6.98027016,12.9876978 6.88988958,12.3864058 6.88988958,11.7366597 C6.88988958,11.0749509 6.98422082,10.467424 7.17319841,9.91567383 C7.362176,9.36339199 7.63617774,8.89351864 7.99479161,8.50540126 C8.35340549,8.11796055 8.79020862,7.82133835 9.30449814,7.61589715 C9.81912699,7.40975511 10.4033166,7.30748159 11.0585213,7.30748159 C11.9471789,7.30748159 12.7099969,7.48858692 13.3476296,7.85045925 C13.9845109,8.21269408 14.4672193,8.72780752 14.7946642,9.3954129 C15.1220847,10.0631874 15.2856133,10.8475422 15.2856133,11.748453 C15.2856133,13.1149838 14.9169409,14.197725 14.1803234,14.9967247 C14.4342325,15.1691059 14.7107307,15.3362429 15.0109086,15.4993198 C15.3110866,15.6616476 15.509759,15.7909153 15.6069503,15.8867364 C15.7048444,15.9825574 15.7532704,16.1188335 15.7532704,16.2949363 C15.7536581,16.4204823 15.6955373,16.5454726 15.5807983,16.6711636 Z M13.2217657,10.0977217 C13.4243888,10.5595475 13.5258943,11.106126 13.5258943,11.7363455 C13.5258943,12.2378531 13.468137,12.678243 13.353398,13.0581437 C13.2382712,13.4380686 13.0600307,13.76705 12.8183372,14.0450638 C11.9838013,13.4500553 11.3899168,13.1525389 11.0352536,13.1525389 C10.9179939,13.1525389 10.8111078,13.1974165 10.7135772,13.2877275 C10.6160224,13.3776518 10.5676207,13.4809887 10.5676207,13.5989947 C10.5676207,13.7359475 10.6181795,13.8417735 10.719685,13.9159653 C10.8208027,13.9903504 11.0090774,14.0962006 11.283782,14.2333467 C11.5581231,14.3702753 11.787286,14.5072522 11.9705678,14.6443741 C11.6664392,14.7659568 11.3705755,14.8262044 11.081886,14.8262044 C10.3800489,14.8262044 9.79944636,14.559259 9.339327,14.0248605 C8.87957123,13.4900995 8.6493419,12.7277365 8.6493419,11.7363455 C8.6493419,11.2507396 8.7110256,10.8132738 8.8340295,10.4234889 C8.95633049,10.0340907 9.12451255,9.71407516 9.33646703,9.46303136 C9.54912438,9.21237424 9.80233059,9.02177138 10.0971036,8.89071532 C10.3911738,8.75949009 10.7114201,8.6937083 11.0585698,8.6937083 C11.5459318,8.6937083 11.9773785,8.81205268 12.3535886,9.04912812 C12.7297502,9.28564772 13.0191426,9.63555752 13.2217657,10.0977217 Z"></path>
                                </g>
                            </g>
                        </g>
                        <text id="Q币充值" font-family="PingFangSC-Medium, PingFang SC" font-size="11.6666667" font-weight="400" fill="#FFFFFF">
                            <tspan x="6.66666667" y="18.6666667">Q币充值</tspan>
                        </text>
                        <text id="50元-copy" font-family="DIN-Medium, DIN" font-size="16.6666667" font-weight="400" fill="#FFFFFF">
                            <tspan x="6.66666667" y="40.3333333">50</tspan>
                            <tspan x="24.4333333" y="40.3333333" font-family="PingFangSC-Medium, PingFang SC">元</tspan>
                        </text>
                    </g>
                    <g id="Group-21" transform="translate(206.666667, 78.333333)">
                        <rect id="Rectangle-3-Copy-2" fill="#FE6969" fill-rule="nonzero" filter="url(#filter-17)" x="8.33333333" y="15.8333333" width="63.3333333" height="36.6666667" rx="3.33333333"></rect>
                        <g id="话费">
                            <mask id="mask-19" fill="white">
                                <use xlink:href="#path-18"></use>
                            </mask>
                            <use id="Mask" fill="#FE6969" fill-rule="nonzero" xlink:href="#path-18"></use>
                            <g opacity="0.300000012" mask="url(#mask-19)" fill="#FFFFFF" fill-rule="nonzero" id="Shape">
                                <g transform="translate(58.333333, 24.166667)">
                                    <path d="M18.9583333,8.34835673e-16 C19.3353175,8.34835673e-16 19.6875,0.0680555556 20.014881,0.204166667 C20.3422619,0.340277778 20.6299603,0.529861111 20.8779762,0.772916667 C21.1259921,1.01597222 21.3194444,1.29791667 21.4583333,1.61875 C21.5972222,1.93958333 21.6666667,2.28472222 21.6666667,2.65416667 L21.6666667,26.5125 C21.6666667,27.2513889 21.4037698,27.8784722 20.8779762,28.39375 C20.3521825,28.9090278 19.7123016,29.1666667 18.9583333,29.1666667 L2.70833333,29.1666667 C1.95436508,29.1666667 1.31448413,28.9090278 0.788690476,28.39375 C0.262896825,27.8784722 0,27.2513889 0,26.5125 L0,2.65416667 C0,2.28472222 0.0694444444,1.93958333 0.208333333,1.61875 C0.347222222,1.29791667 0.540674603,1.01597222 0.788690476,0.772916667 C1.03670635,0.529861111 1.32440476,0.340277778 1.65178571,0.204166667 C1.97916667,0.0680555556 2.33134921,1.51788304e-16 2.70833333,0 L18.9583333,8.34835673e-16 Z M8.125,2.65416667 L13.5119048,2.65416667 L13.5119048,1.3125 L8.125,1.3125 L8.125,2.65416667 Z M10.8035714,27.825 C11.1805556,27.825 11.5327381,27.7569444 11.860119,27.6208333 C12.1875,27.4847222 12.4751984,27.2951389 12.7232143,27.0520833 C12.9712302,26.8090278 13.1646825,26.5270833 13.3035714,26.20625 C13.4424603,25.8854167 13.5119048,25.5402778 13.5119048,25.1708333 C13.5119048,24.8013889 13.4424603,24.45625 13.3035714,24.1354167 C13.1646825,23.8145833 12.9712302,23.5375 12.7232143,23.3041667 C12.4751984,23.0708333 12.1875,22.8861111 11.860119,22.75 C11.5327381,22.6138889 11.1805556,22.5458333 10.8035714,22.5458333 C10.0496032,22.5458333 9.41468254,22.7986111 8.89880952,23.3041667 C8.38293651,23.8097222 8.125,24.4319444 8.125,25.1708333 C8.125,25.9097222 8.38293651,26.5368056 8.89880952,27.0520833 C9.41468254,27.5673611 10.0496032,27.825 10.8035714,27.825 Z M18.9583333,3.96666667 L2.70833333,3.96666667 L2.70833333,21.2041667 L18.9583333,21.2041667 L18.9583333,3.96666667 Z"></path>
                                </g>
                            </g>
                        </g>
                        <text id="话费充值" font-family="PingFangSC-Medium, PingFang SC" font-size="11.6666667" font-weight="400" fill="#FFFFFF">
                            <tspan x="6.66666667" y="18.6666667">话费充值</tspan>
                        </text>
                        <text id="100元" font-family="DIN-Medium, DIN" font-size="16.6666667" font-weight="400" fill="#FFFFFF">
                            <tspan x="6.66666667" y="40.3333333">100</tspan>
                            <tspan x="33.3166667" y="40.3333333" font-family="PingFangSC-Medium, PingFang SC">元</tspan>
                        </text>
                    </g>
                </g>
            </g>
        </g>
    </g>
</svg>